<?xml version="1.0" encoding="UTF-8" standalone="no"?><!DOCTYPE svg PUBLIC "-//W3C//DTD SVG 1.1//EN" "http://www.w3.org/Graphics/SVG/1.1/DTD/svg11.dtd"><svg width="100%" height="100%" viewBox="0 0 4167 4167" version="1.1" xmlns="http://www.w3.org/2000/svg" xmlns:xlink="http://www.w3.org/1999/xlink" xml:space="preserve" xmlns:serif="http://www.serif.com/" style="fill-rule:evenodd;clip-rule:evenodd;stroke-linecap:round;stroke-linejoin:round;stroke-miterlimit:1.5;"><g id="g28"><g id="g1"><circle id="circle1" cx="2083.333" cy="2083.333" r="1920.658" style="fill:none;stroke:#fff;stroke-width:81.71px;"/></g><g id="g3"><g id="g2"><path id="path1" d="M788.94,1585.935c-0.748,-128.035 -7.319,-214.709 -19.715,-260.016c-13.189,-48.205 -34.11,-79.137 -62.762,-92.779c-28.653,-13.642 -92.554,-20.463 -191.704,-20.463l0,-62.765l545.776,0l329.999,436.022l-325.094,0l-209.572,-277.748l0,277.748l-66.927,0Zm67.189,1045.619c1.177,84.484 6.32,141.379 15.429,170.684c10.46,33.662 40.252,64.585 89.371,92.787c49.119,28.194 122.8,42.294 221.038,42.294l0,62.765l-690.405,0l-0,-62.765c88.232,-6.37 155.547,-22.516 201.938,-48.439c46.391,-25.923 73.908,-53.891 82.548,-83.912c7.578,-26.325 11.833,-84.13 12.766,-173.414l67.315,0Z" style="fill:#fff;fill-rule:nonzero;stroke:#fff;stroke-width:4.92px;stroke-linecap:butt;stroke-miterlimit:2;"/></g><path id="path2" d="M2512.297,1199.944c-18.989,0.897 -38.04,1.957 -57.161,3.182l0,382.816l-298.961,0l0,-94.92c0,-81.866 -8.414,-139.167 -25.235,-171.92c-16.829,-32.745 -51.172,-58.666 -103.023,-77.772c-13.413,-4.944 -27.536,-9.249 -42.352,-12.914c-30.6,-7.564 -64.187,-12.399 -100.761,-14.513c-14.154,-0.819 -28.76,-1.224 -43.811,-1.224l0,-62.768l348.082,0c253.786,-12.735 424.794,-19.098 513.023,-19.098c274.709,0 488.927,41.845 642.653,125.528c149.835,81.562 262.294,191.431 337.383,329.601l-281.532,0c-35.357,-74.559 -78.988,-138.263 -130.894,-191.112c-75.503,-76.859 -159.186,-129.17 -251.057,-156.908c-91.871,-27.746 -209.671,-41.619 -353.393,-41.619c-50.501,0 -101.486,1.217 -152.963,3.642Z" style="fill:#fff;stroke:#fff;stroke-width:4.9px;stroke-linecap:butt;stroke-miterlimit:2;"/><path id="path3" d="M2075.689,2924.869l-221.306,-293.308l602.477,0c1.653,76.321 4.492,130.036 8.516,161.135c6.816,52.763 27.286,89.828 61.396,111.203c34.11,21.375 106.196,32.066 216.261,32.066c161.01,0 293.354,-22.061 397.055,-66.176c97.611,-41.526 180.108,-120.935 247.493,-238.229l270.771,0c-26.124,41.502 -55.383,79.066 -87.785,112.7c-71.401,74.13 -154.179,130.527 -248.327,169.191c-94.148,38.656 -183.516,62.76 -268.111,72.313c-84.595,9.553 -203.753,14.325 -357.479,14.325l-820.032,0l0,-62.76l76.407,0c50.993,0 91.879,-4.156 122.666,-12.462Z" style="fill:#fff;stroke:#fff;stroke-width:4.9px;stroke-linecap:butt;stroke-miterlimit:2;"/></g><g id="g20"><path id="path4" d="M924.616,2473.549l-11.997,7.111c-2.245,-3.896 -4.381,-6.433 -6.41,-7.616c-2.115,-1.355 -4.843,-2.032 -8.185,-2.032c-4.107,0 -7.514,1.165 -10.221,3.491c-2.707,2.283 -4.057,5.161 -4.057,8.63c0,4.781 3.551,8.63 10.661,11.551l9.773,4c7.954,3.215 13.772,7.137 17.454,11.771c3.674,4.634 5.515,10.312 5.515,17.039c0,9.009 -3.003,16.457 -9.008,22.338c-6.049,5.924 -13.563,8.884 -22.528,8.884c-8.503,0 -15.526,-2.516 -21.07,-7.551c-5.457,-5.035 -8.864,-12.12 -10.221,-21.259l14.978,-3.301c0.679,5.756 1.862,9.73 3.559,11.931c3.046,4.233 7.485,6.347 13.325,6.347c4.612,0 8.438,-1.545 11.484,-4.634c3.046,-3.089 4.569,-7.003 4.569,-11.741c0,-1.903 -0.26,-3.646 -0.794,-5.234c-0.527,-1.588 -1.35,-3.046 -2.469,-4.38c-1.126,-1.333 -2.577,-2.58 -4.353,-3.745c-1.776,-1.161 -3.891,-2.274 -6.345,-3.331l-9.456,-3.935c-13.411,-5.67 -20.117,-13.963 -20.117,-24.875c0,-7.361 2.815,-13.518 8.438,-18.468c5.63,-4.992 12.632,-7.491 21.005,-7.491c11.296,0 20.124,5.501 26.469,16.5Z" style="fill:#fff;fill-rule:nonzero;stroke:#ebebeb;stroke-width:4.9px;stroke-linecap:butt;stroke-miterlimit:2;"/><path id="path5" d="M940.098,2507.502c0,-13.795 5.053,-25.639 15.165,-35.537c10.069,-9.903 22.174,-14.852 36.3,-14.852c13.967,0 25.935,4.992 35.925,14.977c10.026,9.985 15.035,21.98 15.035,35.982c0,14.088 -5.031,26.04 -15.1,35.856c-10.113,9.859 -22.319,14.787 -36.618,14.787c-12.653,0 -24.008,-4.38 -34.077,-13.134c-11.087,-9.691 -16.631,-22.381 -16.631,-38.079Zm14.913,0.19c0,10.83 3.638,19.736 10.914,26.718c7.24,6.981 15.591,10.472 25.069,10.472c10.286,0 18.955,-3.555 26.021,-10.662c7.067,-7.193 10.596,-15.952 10.596,-26.273c0,-10.451 -3.486,-19.21 -10.466,-26.273c-6.944,-7.107 -15.533,-10.662 -25.769,-10.662c-10.199,0 -18.803,3.555 -25.827,10.662c-7.023,7.025 -10.539,15.697 -10.539,26.019Z" style="fill:#fff;fill-rule:nonzero;stroke:#ebebeb;stroke-width:4.9px;stroke-linecap:butt;stroke-miterlimit:2;"/><path id="path6" d="M1075.908,2458.951l0,84.088l28.815,0l0,13.898l-43.605,0l0,-97.986l14.79,0Z" style="fill:#fff;fill-rule:nonzero;stroke:#ebebeb;stroke-width:4.9px;stroke-linecap:butt;stroke-miterlimit:2;"/><path id="path7" d="M1130.55,2458.951l0,59.023c0,8.418 1.371,14.576 4.122,18.468c4.107,5.627 9.882,8.44 17.331,8.44c7.485,0 13.281,-2.813 17.389,-8.44c2.75,-3.767 4.122,-9.924 4.122,-18.468l0,-59.023l14.79,0l0,63.083c0,10.325 -3.219,18.826 -9.651,25.514c-7.233,7.443 -16.118,11.167 -26.649,11.167c-10.539,0 -19.402,-3.724 -26.592,-11.167c-6.431,-6.688 -9.651,-15.188 -9.651,-25.514l0,-63.083l14.79,0Z" style="fill:#fff;fill-rule:nonzero;stroke:#ebebeb;stroke-width:4.9px;stroke-linecap:butt;stroke-miterlimit:2;"/><path id="path8" d="M1284.188,2464.22l0,17.518c-8.546,-7.154 -17.389,-10.727 -26.527,-10.727c-10.069,0 -18.551,3.616 -25.444,10.852c-6.944,7.193 -10.409,15.991 -10.409,26.398c0,10.282 3.465,18.955 10.409,26.023c6.937,7.063 15.44,10.597 25.509,10.597c5.204,0 9.629,-0.846 13.267,-2.537c2.028,-0.85 4.136,-1.989 6.309,-3.43c2.18,-1.437 4.475,-3.171 6.886,-5.204l0,17.833c-8.46,4.781 -17.345,7.171 -26.649,7.171c-14.003,0 -25.956,-4.884 -35.86,-14.658c-9.853,-9.859 -14.783,-21.747 -14.783,-35.667c0,-12.483 4.122,-23.607 12.372,-33.38c10.156,-11.974 23.293,-17.963 39.411,-17.963c8.799,0 17.302,2.39 25.509,7.171Z" style="fill:#fff;fill-rule:nonzero;stroke:#ebebeb;stroke-width:4.9px;stroke-linecap:butt;stroke-miterlimit:2;"/><rect id="rect8" x="1302.847" y="2458.951" width="14.79" height="97.986" style="fill:#fff;stroke:#ebebeb;stroke-width:4.9px;stroke-linecap:butt;stroke-miterlimit:2;"/><path id="path9" d="M1336.296,2507.502c0,-13.795 5.053,-25.639 15.165,-35.537c10.069,-9.903 22.167,-14.852 36.3,-14.852c13.96,0 25.935,4.992 35.918,14.977c10.026,9.985 15.043,21.98 15.043,35.982c0,14.088 -5.031,26.04 -15.1,35.856c-10.113,9.859 -22.319,14.787 -36.625,14.787c-12.646,0 -24.008,-4.38 -34.077,-13.134c-11.08,-9.691 -16.623,-22.381 -16.623,-38.079Zm14.913,0.19c0,10.83 3.638,19.736 10.914,26.718c7.233,6.981 15.591,10.472 25.069,10.472c10.279,0 18.955,-3.555 26.021,-10.662c7.059,-7.193 10.596,-15.952 10.596,-26.273c0,-10.451 -3.494,-19.21 -10.474,-26.273c-6.937,-7.107 -15.526,-10.662 -25.762,-10.662c-10.199,0 -18.811,3.555 -25.834,10.662c-7.023,7.025 -10.531,15.697 -10.531,26.019Z" style="fill:#fff;fill-rule:nonzero;stroke:#ebebeb;stroke-width:4.9px;stroke-linecap:butt;stroke-miterlimit:2;"/><path id="path10" d="M1457.315,2556.937l0,-104.648l71.46,74.759l0,-68.097l14.783,0l0,103.953l-71.453,-74.569l0,68.602l-14.79,0Z" style="fill:#fff;fill-rule:nonzero;stroke:#ebebeb;stroke-width:4.9px;stroke-linecap:butt;stroke-miterlimit:2;"/><path id="path11" d="M1621.11,2472.85l-39.281,0l0,23.546l38.141,0l0,13.898l-38.141,0l0,32.745l39.281,0l0,13.898l-54.071,0l0,-97.986l54.071,0l0,13.898Z" style="fill:#fff;fill-rule:nonzero;stroke:#ebebeb;stroke-width:4.9px;stroke-linecap:butt;stroke-miterlimit:2;"/><path id="path12" d="M1695.933,2473.549l-11.997,7.111c-2.238,-3.896 -4.374,-6.433 -6.41,-7.616c-2.115,-1.355 -4.843,-2.032 -8.185,-2.032c-4.1,0 -7.507,1.165 -10.214,3.491c-2.707,2.283 -4.064,5.161 -4.064,8.63c0,4.781 3.551,8.63 10.661,11.551l9.773,4c7.954,3.215 13.772,7.137 17.454,11.771c3.681,4.634 5.522,10.312 5.522,17.039c0,9.009 -3.003,16.457 -9.015,22.338c-6.049,5.924 -13.556,8.884 -22.528,8.884c-8.503,0 -15.526,-2.516 -21.07,-7.551c-5.457,-5.035 -8.864,-12.12 -10.214,-21.259l14.978,-3.301c0.671,5.756 1.862,9.73 3.551,11.931c3.046,4.233 7.485,6.347 13.325,6.347c4.612,0 8.445,-1.545 11.491,-4.634c3.046,-3.089 4.569,-7.003 4.569,-11.741c0,-1.903 -0.267,-3.646 -0.794,-5.234c-0.527,-1.588 -1.357,-3.046 -2.476,-4.38c-1.119,-1.333 -2.57,-2.58 -4.345,-3.745c-1.783,-1.161 -3.898,-2.274 -6.352,-3.331l-9.456,-3.935c-13.411,-5.67 -20.117,-13.963 -20.117,-24.875c0,-7.361 2.815,-13.518 8.445,-18.468c5.623,-4.992 12.625,-7.491 21.005,-7.491c11.296,0 20.117,5.501 26.462,16.5Z" style="fill:#fff;fill-rule:nonzero;stroke:#ebebeb;stroke-width:4.9px;stroke-linecap:butt;stroke-miterlimit:2;"/><path id="path13" d="M1813.972,2533.141l-41.945,0l-10.914,23.796l-15.93,0l48.484,-104.139l46.774,104.139l-16.183,0l-10.286,-23.796Zm-6.027,-13.898l-14.53,-33.319l-15.23,33.319l29.76,0Z" style="fill:#fff;fill-rule:nonzero;stroke:#ebebeb;stroke-width:4.9px;stroke-linecap:butt;stroke-miterlimit:2;"/><path id="path14" d="M1852.683,2556.937l0,-104.648l71.46,74.759l0,-68.097l14.79,0l0,103.953l-71.46,-74.569l0,68.602l-14.79,0Z" style="fill:#fff;fill-rule:nonzero;stroke:#ebebeb;stroke-width:4.9px;stroke-linecap:butt;stroke-miterlimit:2;"/><path id="path15" d="M2020.736,2533.141l-41.952,0l-10.914,23.796l-15.93,0l48.484,-104.139l46.774,104.139l-16.183,0l-10.279,-23.796Zm-6.027,-13.898l-14.537,-33.319l-15.23,33.319l29.768,0Z" style="fill:#fff;fill-rule:nonzero;stroke:#ebebeb;stroke-width:4.9px;stroke-linecap:butt;stroke-miterlimit:2;"/><path id="path16" d="M2074.23,2458.951l0,84.088l28.815,0l0,13.898l-43.598,0l0,-97.986l14.783,0Z" style="fill:#fff;fill-rule:nonzero;stroke:#ebebeb;stroke-width:4.9px;stroke-linecap:butt;stroke-miterlimit:2;"/><rect id="rect16" x="2117.069" y="2458.951" width="14.79" height="97.986" style="fill:#fff;stroke:#ebebeb;stroke-width:4.9px;stroke-linecap:butt;stroke-miterlimit:2;"/><path id="path17" d="M2182.437,2472.85l0,84.088l-14.79,0l0,-84.088l-22.528,0l0,-13.898l59.781,0l0,13.898l-22.463,0Z" style="fill:#fff;fill-rule:nonzero;stroke:#ebebeb;stroke-width:4.9px;stroke-linecap:butt;stroke-miterlimit:2;"/><rect id="rect17" x="2218.102" y="2458.951" width="14.79" height="97.986" style="fill:#fff;stroke:#ebebeb;stroke-width:4.9px;stroke-linecap:butt;stroke-miterlimit:2;"/><path id="path18" d="M2328.843,2464.22l0,17.518c-8.546,-7.154 -17.389,-10.727 -26.527,-10.727c-10.069,0 -18.551,3.616 -25.451,10.852c-6.937,7.193 -10.409,15.991 -10.409,26.398c0,10.282 3.472,18.955 10.409,26.023c6.944,7.063 15.447,10.597 25.516,10.597c5.204,0 9.622,-0.846 13.26,-2.537c2.036,-0.85 4.136,-1.989 6.316,-3.43c2.18,-1.437 4.475,-3.171 6.886,-5.204l0,17.833c-8.46,4.781 -17.345,7.171 -26.657,7.171c-14.003,0 -25.956,-4.884 -35.853,-14.658c-9.86,-9.859 -14.79,-21.747 -14.79,-35.667c0,-12.483 4.129,-23.607 12.379,-33.38c10.156,-11.974 23.286,-17.963 39.411,-17.963c8.799,0 17.302,2.39 25.509,7.171Z" style="fill:#fff;fill-rule:nonzero;stroke:#ebebeb;stroke-width:4.9px;stroke-linecap:butt;stroke-miterlimit:2;"/><path id="path19" d="M2407.413,2533.141l-41.952,0l-10.914,23.796l-15.93,0l48.484,-104.139l46.774,104.139l-16.183,0l-10.279,-23.796Zm-6.034,-13.898l-14.53,-33.319l-15.23,33.319l29.76,0Z" style="fill:#fff;fill-rule:nonzero;stroke:#ebebeb;stroke-width:4.9px;stroke-linecap:butt;stroke-miterlimit:2;"/><path id="path20" d="M2501.523,2473.549l-11.997,7.111c-2.238,-3.896 -4.374,-6.433 -6.41,-7.616c-2.115,-1.355 -4.843,-2.032 -8.185,-2.032c-4.1,0 -7.507,1.165 -10.214,3.491c-2.707,2.283 -4.064,5.161 -4.064,8.63c0,4.781 3.551,8.63 10.661,11.551l9.773,4c7.954,3.215 13.772,7.137 17.454,11.771c3.681,4.634 5.522,10.312 5.522,17.039c0,9.009 -3.003,16.457 -9.015,22.338c-6.049,5.924 -13.556,8.884 -22.528,8.884c-8.503,0 -15.526,-2.516 -21.07,-7.551c-5.457,-5.035 -8.864,-12.12 -10.214,-21.259l14.978,-3.301c0.671,5.756 1.862,9.73 3.551,11.931c3.046,4.233 7.485,6.347 13.325,6.347c4.612,0 8.445,-1.545 11.491,-4.634c3.046,-3.089 4.569,-7.003 4.569,-11.741c0,-1.903 -0.267,-3.646 -0.794,-5.234c-0.527,-1.588 -1.357,-3.046 -2.476,-4.38c-1.119,-1.333 -2.57,-2.58 -4.345,-3.745c-1.776,-1.161 -3.898,-2.274 -6.352,-3.331l-9.456,-3.935c-13.411,-5.67 -20.117,-13.963 -20.117,-24.875c0,-7.361 2.815,-13.518 8.445,-18.468c5.623,-4.992 12.625,-7.491 21.005,-7.491c11.296,0 20.117,5.501 26.462,16.5Z" style="fill:#fff;fill-rule:nonzero;stroke:#ebebeb;stroke-width:4.9px;stroke-linecap:butt;stroke-miterlimit:2;"/></g><g id="g26"><path id="path21" d="M873.846,2268.023l86.559,0l0,-533.4l-86.559,0l0,-10.918l166.882,0l263.581,425.004l1.558,0l0,-414.087l-86.559,0l0,-10.918l184.822,0l0,10.918l-86.565,0l0,555.235l-15.595,0l-328.308,-523.262l-1.558,0l0,501.427l86.559,0l0,10.918l-184.817,0l0,-10.918Z" style="fill:#fff;fill-rule:nonzero;stroke:#fff;stroke-width:4.91px;stroke-linecap:butt;stroke-miterlimit:2;"/><path id="path22" d="M1493.028,1762.697c0,-11.44 4.029,-21.188 12.086,-29.243c8.057,-8.056 17.804,-12.087 29.245,-12.087c11.436,0 21.182,4.032 29.239,12.087c8.063,8.056 12.092,17.803 12.092,29.243c0,11.44 -4.029,21.188 -12.092,29.243c-8.057,8.056 -17.804,12.087 -29.239,12.087c-11.441,0 -21.187,-4.032 -29.245,-12.087c-8.057,-8.056 -12.086,-17.803 -12.086,-29.243Zm-50.689,505.326l60.048,0l0,-312.71l-60.048,0l0,-10.918l127.109,0l0,323.627l60.048,0l0,10.918l-187.156,0l0,-10.918Z" style="fill:#fff;fill-rule:nonzero;stroke:#fff;stroke-width:4.91px;stroke-linecap:butt;stroke-miterlimit:2;"/><path id="path23" d="M1695.003,2169.765l8.577,0c3.641,12.477 8.32,25.087 14.038,37.821c5.718,12.735 13.387,24.432 23.002,35.092c9.621,10.66 21.444,19.363 35.482,26.124c14.038,6.761 30.934,10.138 50.689,10.138c16.64,0 31.453,-5.069 44.452,-15.207c12.993,-10.138 19.493,-26.647 19.493,-49.519c0,-19.753 -5.067,-33.665 -15.207,-41.721c-10.135,-8.056 -21.964,-14.427 -35.482,-19.106l-60.824,-21.055c-7.8,-2.597 -16.246,-5.849 -25.347,-9.748c-9.096,-3.899 -17.541,-9.358 -25.342,-16.376c-7.8,-7.018 -14.169,-15.986 -19.105,-26.904c-4.942,-10.918 -7.407,-24.954 -7.407,-42.111c0,-14.559 2.859,-28.074 8.577,-40.551c5.718,-12.477 13.518,-23.395 23.396,-32.753c9.878,-9.358 21.701,-16.634 35.482,-21.835c13.775,-5.201 28.72,-7.798 44.84,-7.798c11.436,0 20.663,0.912 27.681,2.729c7.019,1.817 13.125,3.642 18.323,5.459c5.204,1.817 9.878,3.642 14.038,5.459c4.16,1.817 9.101,2.729 14.819,2.729c5.718,0 9.878,-2.082 12.474,-6.239l8.582,0l0,88.9l-8.582,0c-3.635,-11.44 -7.795,-22.482 -12.474,-33.143c-4.679,-10.66 -10.266,-20.143 -16.765,-28.464c-6.499,-8.321 -14.557,-14.817 -24.178,-19.496c-9.615,-4.679 -20.925,-7.018 -33.919,-7.018c-24.959,0 -44.321,5.591 -58.102,16.766c-13.775,11.175 -20.663,26.124 -20.663,44.84c0,16.634 5.849,29.243 17.547,37.821c11.698,8.578 28.982,16.509 51.859,23.785l56.926,18.716c24.434,8.321 44.447,19.753 60.048,34.312c15.595,14.559 23.39,33.79 23.39,57.707c0,14.037 -2.728,27.816 -8.189,41.331c-5.455,13.514 -13.513,25.344 -24.172,35.482c-10.659,10.138 -23.653,18.326 -38.991,24.564c-15.339,6.239 -32.88,9.358 -52.641,9.358c-11.436,0 -21.964,-1.17 -31.579,-3.509c-9.621,-2.339 -18.46,-4.812 -26.517,-7.408c-8.057,-2.597 -15.464,-5.069 -22.221,-7.408c-6.762,-2.339 -12.999,-3.509 -18.717,-3.509c-5.718,0 -9.878,1.17 -12.48,3.509c-2.597,2.339 -4.679,4.812 -6.237,7.408l-8.577,0l0,-109.175Z" style="fill:#fff;fill-rule:nonzero;stroke:#fff;stroke-width:4.91px;stroke-linecap:butt;stroke-miterlimit:2;"/><path id="path24" d="M2171.476,2268.023c8.839,1.037 19.105,1.817 30.803,2.339c11.698,0.522 24.566,0.78 38.598,0.78c17.678,0 35.225,-0.912 52.641,-2.729c17.416,-1.817 34.05,-5.716 49.908,-11.697c15.858,-5.981 30.672,-14.559 44.452,-25.734c13.775,-11.175 26.124,-25.867 37.04,-44.06c16.64,-28.074 28.206,-56.795 34.7,-86.171c6.499,-29.376 9.752,-61.474 9.752,-96.308c0,-41.073 -3.903,-78.372 -11.698,-111.905c-7.8,-33.532 -20.668,-62.129 -38.603,-85.781c-17.935,-23.652 -41.719,-41.978 -71.352,-54.978c-29.633,-13 -66.285,-19.496 -109.955,-19.496c-12.999,0 -24.828,0.257 -35.482,0.78c-10.659,0.522 -20.925,1.037 -30.803,1.56l0,533.4Zm-164.547,0l86.565,0l0,-533.4l-86.565,0l0,-10.918l145.049,0c7.281,0 14.557,-0.133 21.838,-0.39c7.276,-0.257 14.557,-0.647 21.833,-1.17c7.281,0 14.557,-0.133 21.838,-0.39c7.276,-0.257 14.557,-0.39 21.833,-0.39c15.595,0 29.502,0.257 41.719,0.78c12.217,0.522 23.658,1.427 34.312,2.729c10.659,1.302 20.799,3.119 30.415,5.459c9.621,2.339 19.887,5.326 30.803,8.968c31.716,10.395 59.14,24.307 82.274,41.721c23.133,17.413 42.107,37.564 56.926,60.436c14.819,22.872 25.735,47.827 32.754,74.863c7.019,27.037 10.528,55.368 10.528,85.001c0,34.312 -4.16,65.115 -12.48,92.409c-8.32,27.294 -19.755,51.468 -34.312,72.524c-14.557,21.055 -31.584,39.249 -51.077,54.588c-19.498,15.339 -40.423,27.684 -62.775,37.042c-12.48,5.716 -24.309,10.138 -35.482,13.257c-11.179,3.119 -22.614,5.459 -34.312,7.018c-11.698,1.56 -24.566,2.597 -38.603,3.119c-14.038,0.522 -30.152,0.78 -48.35,0.78c-7.8,0 -16.115,-0.133 -24.954,-0.39c-8.839,-0.257 -17.678,-0.647 -26.512,-1.17c-8.839,-0.522 -17.547,-0.912 -26.129,-1.17c-8.577,-0.257 -16.765,-0.39 -24.56,-0.39l-132.575,0l0,-10.918Z" style="fill:#fff;fill-rule:nonzero;stroke:#fff;stroke-width:4.91px;stroke-linecap:butt;stroke-miterlimit:2;"/><path id="path25" d="M2893.594,2074.626c1.039,-7.276 1.558,-14.037 1.558,-20.275l0,-19.496c0,-17.679 -1.689,-32.23 -5.067,-43.67c-3.384,-11.44 -8.063,-20.533 -14.038,-27.294c-5.98,-6.761 -13.256,-11.565 -21.838,-14.427c-8.577,-2.862 -17.804,-4.289 -27.681,-4.289c-17.678,0 -32.235,3.509 -43.67,10.528c-11.436,7.018 -20.537,16.509 -27.293,28.464c-6.762,11.955 -11.829,25.734 -15.207,41.331c-3.378,15.596 -5.587,31.973 -6.631,49.129l159.868,0Zm-160.644,10.918c0,5.201 -0.131,10.528 -0.394,15.986c-0.257,5.459 -0.388,12.345 -0.388,20.665c0,17.156 1.039,35.092 3.121,53.808c2.077,18.716 6.625,35.615 13.644,50.689c7.019,15.074 17.416,27.551 31.196,37.432c13.775,9.88 32.098,14.817 54.975,14.817c22.877,0 41.719,-3.377 56.538,-10.138c14.814,-6.761 26.512,-14.949 35.094,-24.564c8.577,-9.615 14.945,-19.363 19.105,-29.243c4.16,-9.88 7.276,-17.936 9.358,-24.175l11.698,2.339c-1.563,5.716 -4.553,13.904 -8.97,24.564c-4.417,10.66 -11.436,21.313 -21.056,31.973c-9.615,10.66 -22.614,20.018 -38.991,28.074c-16.377,8.056 -37.559,12.087 -63.557,12.087c-25.992,0 -50.039,-4.156 -72.134,-12.477c-22.095,-8.321 -41.2,-20.275 -57.314,-35.872c-16.115,-15.596 -28.594,-34.18 -37.433,-55.757c-8.839,-21.578 -13.256,-45.62 -13.256,-72.134c0,-22.872 4.548,-45.097 13.649,-66.675c9.096,-21.578 21.576,-40.683 37.428,-57.317c15.858,-16.634 34.443,-30.023 55.757,-40.161c21.319,-10.138 44.195,-15.207 68.63,-15.207c14.551,0 30.152,2.597 46.786,7.798c16.634,5.201 32.104,13.647 46.398,25.344c14.3,11.697 26.255,27.161 35.876,46.4c9.615,19.238 14.426,43.148 14.426,71.744l-240.185,0Z" style="fill:#fff;fill-rule:nonzero;stroke:#fff;stroke-width:4.91px;stroke-linecap:butt;stroke-miterlimit:2;"/><path id="path26" d="M2993.409,1944.396l191.059,0l0,10.918l-65.508,0l100.597,244.865l105.276,-244.865l-64.721,0l0,-10.918l119.314,0l0,10.918l-42.113,0l-128.672,301.012c-9.878,22.358 -19.236,44.84 -28.075,67.455c-8.834,22.615 -17.673,45.362 -26.512,68.235c-7.281,18.716 -14.557,35.092 -21.838,49.129c-7.276,14.037 -14.945,25.477 -23.002,34.312c-8.057,8.835 -16.765,15.464 -26.124,19.886c-9.358,4.422 -20.275,6.629 -32.754,6.629c-15.076,0 -27.162,-2.339 -36.258,-7.018c-9.101,-4.679 -16.251,-10.138 -21.45,-16.376c-5.198,-6.239 -8.577,-12.735 -10.135,-19.496c-1.563,-6.761 -2.34,-12.477 -2.34,-17.156c0,-13 3.641,-22.747 10.916,-29.243c7.281,-6.496 16.115,-9.748 26.512,-9.748c3.641,0 7.544,0.39 11.698,1.17c4.16,0.78 8.063,2.207 11.698,4.289c3.641,2.082 6.762,4.936 9.358,8.578c2.602,3.642 3.903,8.056 3.903,13.257c0,7.276 -2.214,14.169 -6.631,20.665c-4.422,6.496 -6.631,13.647 -6.631,21.445c0,6.761 1.82,11.175 5.461,13.257c3.641,2.082 8.577,3.119 14.814,3.119c8.32,0 15.989,-1.95 23.008,-5.849c7.019,-3.899 13.906,-10.27 20.663,-19.106c6.762,-8.835 13.518,-20.408 20.28,-34.702c6.756,-14.294 14.294,-31.84 22.614,-52.638l34.312,-87.34l-134.909,-333.765l-53.811,0l-0,-10.918Z" style="fill:#fff;fill-rule:nonzero;stroke:#fff;stroke-width:4.91px;stroke-linecap:butt;stroke-miterlimit:2;"/></g><g id="g27"><path id="path27" d="M857.469,2319.292l2230.022,0.512" style="fill:none;stroke:#fff;stroke-width:20.43px;stroke-linecap:square;"/></g></g></svg>